# xmcd CD database file
#
# Track frame offsets:
#	150
#	20985
#	37723
#	55581
#	70116
#	83991
#	108874
#	118417
#	139680
#	160870
#	180351
#	204009
#	230127
#	246000
#	266867
#
# Disc length: 3738 seconds
#
# Revision: 0
# Processed by: cddbd v1.5.2PL0 Copyright (c) Steve Scherf et al.
# Submitted via: CDex 1.75
#
DISCID=c70e980f
DTITLE=Feel the Manouche - The Moon Has Left Town
DYEAR=2014
DGENRE=Jazz
TTITLE0=Daphne
TTITLE1=You Stepped Out Of A Dream
TTITLE2=Swing 48
TTITLE3=The Moon Has Left Town
TTITLE4=Nuit St Germain Des Pres
TTITLE5=How High The Moon
TTITLE6=Swing On The Ville
TTITLE7=Dinah
TTITLE8=Troublant Balero
TTITLE9=I'll See You In My Dreams
TTITLE10=Nuages
TTITLE11=You'd Be So Nice To Come Home To
TTITLE12=Segment
TTITLE13=The Song Is Ended
TTITLE14=Django's Tiger
EXTD=YEAR: 2014
EXTT0=
EXTT1=
EXTT2=
EXTT3=
EXTT4=
EXTT5=
EXTT6=
EXTT7=
EXTT8=
EXTT9=
EXTT10=
EXTT11=
EXTT12=
EXTT13=
EXTT14=
PLAYORDER=
